<?xml version="1.0" encoding="utf-8" standalone="no"?><!DOCTYPE svg PUBLIC "-//W3C//DTD SVG 1.1//EN" "http://www.w3.org/Graphics/SVG/1.1/DTD/svg11.dtd">
<svg preserveAspectRatio="xMinYMin meet" width="100%" height="100%" viewBox="0 0 504.000 378.000"  version="1.1" xmlns="http://www.w3.org/2000/svg" xmlns:xlink="http://www.w3.org/1999/xlink">
  <desc>Matlab Figure Converted by PLOT2SVG written by Juerg Schwizer</desc>
  <g id="topgroup">
  <rect x="0" y="0" width="504.000" height="378.000" fill="#ffffff" stroke="none" />
  <g id ="ID000000">
  <clipPath id="ID000001">
    <rect x="65.520" y="28.350" width="390.600" height="292.802"/>
  </clipPath>
      <polygon fill="#ffffff" fill-opacity="1.00" stroke="none" stroke-width="0.5pt" stroke-opacity="1.00" stroke-dasharray="none" points="65.520,321.152 456.120,321.152 456.120,28.350 65.520,28.350 "/>
      <polygon fill="#ffffff" fill-opacity="1.00" stroke="none" stroke-width="0.5pt" stroke-opacity="1.00" stroke-dasharray="none" points="65.520,321.152 456.120,321.152 456.120,321.152 65.520,321.152 "/>
      <polygon fill="#ffffff" fill-opacity="1.00" stroke="none" stroke-width="0.5pt" stroke-opacity="1.00" stroke-dasharray="none" points="65.520,321.152 65.520,321.152 65.520,28.350 65.520,28.350 "/>
    <g>
<g id="ID000002" >
  <g transform="translate(36.290,174.751)">
    <g transform="rotate(-90.0)">
      <text x="0.000" y="0.000" font-family="Helvetica" text-anchor="middle" font-size="8pt" fill="#262626" >Voltage (V)</text>
    </g>
  </g>
</g>
<g id="ID000003" >
  <g transform="translate(260.820,351.345)">
    <g transform="rotate(-0.0)">
      <text x="0.000" y="0.000" font-family="Helvetica" text-anchor="middle" font-size="8pt" fill="#262626" >Time (s)</text>
    </g>
  </g>
</g>
<g id="ID000004" >
</g>
<g id="ID000005" clip-path="url(#ID000001)" >
      <polyline fill="none" stroke="#0071bc" stroke-width="2.0pt" stroke-dasharray="none" points="67.454,308.460 71.321,307.519 75.188,305.641 79.056,302.833 82.923,299.106 86.790,294.474 90.658,288.957 94.525,282.574 98.392,275.352 102.260,267.319 106.127,258.506 109.994,248.947 113.862,238.681 117.729,227.748 121.596,216.192 125.464,204.058 129.331,191.397 133.198,178.259 137.066,164.699 140.933,150.778 144.800,136.561 148.668,122.127 152.535,107.595 156.402,93.302 160.270,82.842 164.137,75.253 168.004,68.044 171.871,66.327 175.739,65.865 179.606,65.602 183.473,65.420 187.341,65.282 191.208,65.171 195.075,65.080 198.943,65.004 202.810,64.938 206.677,64.881 210.545,64.832 214.412,64.788 218.279,64.750 222.147,64.717 226.014,64.689 229.881,64.664 233.749,64.642 237.616,64.624 241.483,64.609 245.351,64.597 249.218,64.587 253.085,64.581 256.953,64.577 260.820,64.575 264.687,64.577 268.555,64.581 272.422,64.587 276.289,64.597 280.157,64.609 284.024,64.624 287.891,64.642 291.759,64.664 295.626,64.689 299.493,64.717 303.361,64.750 307.228,64.788 311.095,64.832 314.963,64.881 318.830,64.938 322.697,65.004 326.565,65.080 330.432,65.171 334.299,65.282 338.167,65.420 342.034,65.602 345.901,65.865 349.769,66.327 353.636,68.044 357.503,75.253 361.370,82.842 365.238,93.302 369.105,107.595 372.972,122.127 376.840,136.561 380.707,150.778 384.574,164.699 388.442,178.259 392.309,191.397 396.176,204.058 400.044,216.192 403.911,227.748 407.778,238.681 411.646,248.947 415.513,258.506 419.380,267.319 423.248,275.352 427.115,282.574 430.982,288.957 434.850,294.474 438.717,299.106 442.584,302.833 446.452,305.641 450.319,307.519 454.186,308.460 "/>
<g>
</g>
</g>
<g id="ID000006" clip-path="url(#ID000001)" >
      <polyline fill="none" stroke="#d85218" stroke-width="2.0pt" stroke-dasharray="none" points="67.454,308.460 71.321,307.519 75.188,305.641 79.056,302.833 82.923,299.106 86.790,294.474 90.658,288.957 94.525,282.574 98.392,275.352 102.260,267.319 106.127,258.506 109.994,248.947 113.862,238.681 117.729,227.748 121.596,216.192 125.464,204.058 129.331,191.397 133.198,178.259 137.066,164.699 140.933,150.778 144.800,136.561 148.668,122.127 152.535,107.595 156.402,93.302 160.270,82.842 164.137,75.253 168.004,68.044 171.871,66.327 175.739,65.865 179.606,65.602 183.473,65.420 187.341,65.282 191.208,65.171 195.075,65.080 198.943,65.004 202.810,64.938 206.677,64.881 210.545,64.832 214.412,64.788 218.279,64.750 222.147,64.717 226.014,64.689 229.881,64.664 233.749,64.642 237.616,64.624 241.483,64.609 245.351,64.597 249.218,64.587 253.085,64.581 256.953,64.577 260.820,64.575 264.687,64.577 268.555,64.581 272.422,64.587 276.289,64.597 280.157,64.609 284.024,64.624 287.891,64.642 291.759,64.664 295.626,64.689 299.493,64.717 303.361,64.750 307.228,64.788 311.095,64.832 314.963,64.881 318.830,64.938 322.697,65.004 326.565,65.080 330.432,65.171 334.299,65.282 338.167,65.420 342.034,65.602 345.901,65.865 349.769,66.327 353.636,68.044 357.503,75.253 361.370,82.842 365.238,93.302 369.105,107.595 372.972,122.127 376.840,136.561 380.707,150.778 384.574,164.699 388.442,178.259 392.309,191.397 396.176,204.058 400.044,216.192 403.911,227.748 407.778,238.681 411.646,248.947 415.513,258.506 419.380,267.319 423.248,275.352 427.115,282.574 430.982,288.957 434.850,294.474 438.717,299.106 442.584,302.833 446.452,305.641 450.319,307.519 454.186,308.460 "/>
<g>
</g>
</g>
<g id="ID000007" clip-path="url(#ID000001)" >
      <polyline fill="none" stroke="#ecb01f" stroke-width="2.0pt" stroke-dasharray="none" points="67.454,64.576 71.321,64.578 75.188,64.584 79.056,64.592 82.923,64.602 86.790,64.616 90.658,64.633 94.525,64.652 98.392,64.676 102.260,64.702 106.127,64.733 109.994,64.769 113.862,64.809 117.729,64.855 121.596,64.908 125.464,64.969 129.331,65.040 133.198,65.124 137.066,65.224 140.933,65.347 144.800,65.504 148.668,65.720 152.535,66.055 156.402,66.791 160.270,71.462 164.137,79.048 168.004,86.999 171.871,100.369 175.739,114.862 179.606,129.365 183.473,143.702 187.341,157.780 191.208,171.528 195.075,184.884 198.943,197.790 202.810,210.194 206.677,222.045 210.545,233.295 214.412,243.900 218.279,253.817 222.147,263.008 226.014,271.435 229.881,279.066 233.749,285.872 237.616,291.825 241.483,296.902 245.351,301.083 249.218,304.352 253.085,306.697 256.953,308.107 260.820,308.577 264.687,308.107 268.555,306.697 272.422,304.352 276.289,301.083 280.157,296.902 284.024,291.825 287.891,285.872 291.759,279.066 295.626,271.435 299.493,263.008 303.361,253.817 307.228,243.900 311.095,233.295 314.963,222.045 318.830,210.194 322.697,197.790 326.565,184.884 330.432,171.528 334.299,157.780 338.167,143.702 342.034,129.365 345.901,114.862 349.769,100.369 353.636,86.999 357.503,79.048 361.370,71.462 365.238,66.791 369.105,66.055 372.972,65.720 376.840,65.504 380.707,65.347 384.574,65.224 388.442,65.124 392.309,65.040 396.176,64.969 400.044,64.908 403.911,64.855 407.778,64.809 411.646,64.769 415.513,64.733 419.380,64.702 423.248,64.676 427.115,64.652 430.982,64.633 434.850,64.616 438.717,64.602 442.584,64.592 446.452,64.584 450.319,64.578 454.186,64.576 "/>
<g>
</g>
</g>
<g id="ID000008" clip-path="url(#ID000001)" >
      <polyline fill="none" stroke="#7d2e8d" stroke-width="2.0pt" stroke-dasharray="none" points="67.454,64.576 71.321,64.578 75.188,64.584 79.056,64.592 82.923,64.602 86.790,64.616 90.658,64.633 94.525,64.652 98.392,64.676 102.260,64.702 106.127,64.733 109.994,64.769 113.862,64.809 117.729,64.855 121.596,64.908 125.464,64.969 129.331,65.040 133.198,65.124 137.066,65.224 140.933,65.347 144.800,65.504 148.668,65.720 152.535,66.055 156.402,66.791 160.270,71.462 164.137,79.048 168.004,86.999 171.871,100.369 175.739,114.862 179.606,129.365 183.473,143.702 187.341,157.780 191.208,171.528 195.075,184.884 198.943,197.790 202.810,210.194 206.677,222.045 210.545,233.295 214.412,243.900 218.279,253.817 222.147,263.008 226.014,271.435 229.881,279.066 233.749,285.872 237.616,291.825 241.483,296.902 245.351,301.083 249.218,304.352 253.085,306.697 256.953,308.107 260.820,308.577 264.687,308.107 268.555,306.697 272.422,304.352 276.289,301.083 280.157,296.902 284.024,291.825 287.891,285.872 291.759,279.066 295.626,271.435 299.493,263.008 303.361,253.817 307.228,243.900 311.095,233.295 314.963,222.045 318.830,210.194 322.697,197.790 326.565,184.884 330.432,171.528 334.299,157.780 338.167,143.702 342.034,129.365 345.901,114.862 349.769,100.369 353.636,86.999 357.503,79.048 361.370,71.462 365.238,66.791 369.105,66.055 372.972,65.720 376.840,65.504 380.707,65.347 384.574,65.224 388.442,65.124 392.309,65.040 396.176,64.969 400.044,64.908 403.911,64.855 407.778,64.809 411.646,64.769 415.513,64.733 419.380,64.702 423.248,64.676 427.115,64.652 430.982,64.633 434.850,64.616 438.717,64.602 442.584,64.592 446.452,64.584 450.319,64.578 454.186,64.576 "/>
<g>
</g>
</g>
    </g>
    <g>
      <polyline fill="none" stroke="#262626" stroke-width="0.5pt" stroke-dasharray="none" points="65.520,321.152 65.520,317.246 "/>
      <polyline fill="none" stroke="#262626" stroke-width="0.5pt" stroke-dasharray="none" points="260.820,321.152 260.820,317.246 "/>
      <polyline fill="none" stroke="#262626" stroke-width="0.5pt" stroke-dasharray="none" points="456.120,321.152 456.120,317.246 "/>
      <polyline fill="none" stroke="#262626" stroke-width="0.5pt" stroke-dasharray="none" points="65.520,321.152 456.120,321.152 "/>
  <g transform="translate(65.520,335.858)">
    <g transform="rotate(-0.0)">
      <text x="0.000" y="0.000" font-family="Helvetica" text-anchor="middle" font-size="8pt" fill="#262626" >-5</text>
    </g>
  </g>
  <g transform="translate(260.820,335.858)">
    <g transform="rotate(-0.0)">
      <text x="0.000" y="0.000" font-family="Helvetica" text-anchor="middle" font-size="8pt" fill="#262626" >0</text>
    </g>
  </g>
  <g transform="translate(456.120,335.858)">
    <g transform="rotate(-0.0)">
      <text x="0.000" y="0.000" font-family="Helvetica" text-anchor="middle" font-size="8pt" fill="#262626" >5</text>
    </g>
  </g>
      <polyline fill="none" stroke="#262626" stroke-width="0.5pt" stroke-dasharray="none" points="65.520,321.152 69.426,321.152 "/>
      <polyline fill="none" stroke="#262626" stroke-width="0.5pt" stroke-dasharray="none" points="65.520,272.352 69.426,272.352 "/>
      <polyline fill="none" stroke="#262626" stroke-width="0.5pt" stroke-dasharray="none" points="65.520,223.552 69.426,223.552 "/>
      <polyline fill="none" stroke="#262626" stroke-width="0.5pt" stroke-dasharray="none" points="65.520,174.751 69.426,174.751 "/>
      <polyline fill="none" stroke="#262626" stroke-width="0.5pt" stroke-dasharray="none" points="65.520,125.951 69.426,125.951 "/>
      <polyline fill="none" stroke="#262626" stroke-width="0.5pt" stroke-dasharray="none" points="65.520,77.150 69.426,77.150 "/>
      <polyline fill="none" stroke="#262626" stroke-width="0.5pt" stroke-dasharray="none" points="65.520,28.350 69.426,28.350 "/>
      <polyline fill="none" stroke="#262626" stroke-width="0.5pt" stroke-dasharray="none" points="65.520,321.152 65.520,28.350 "/>
  <g transform="translate(57.708,324.527)">
    <g transform="rotate(-0.0)">
      <text x="0.000" y="0.000" font-family="Helvetica" text-anchor="end" font-size="8pt" fill="#262626" >-10</text>
    </g>
  </g>
  <g transform="translate(57.708,275.727)">
    <g transform="rotate(-0.0)">
      <text x="0.000" y="0.000" font-family="Helvetica" text-anchor="end" font-size="8pt" fill="#262626" >-8</text>
    </g>
  </g>
  <g transform="translate(57.708,226.927)">
    <g transform="rotate(-0.0)">
      <text x="0.000" y="0.000" font-family="Helvetica" text-anchor="end" font-size="8pt" fill="#262626" >-6</text>
    </g>
  </g>
  <g transform="translate(57.708,178.126)">
    <g transform="rotate(-0.0)">
      <text x="0.000" y="0.000" font-family="Helvetica" text-anchor="end" font-size="8pt" fill="#262626" >-4</text>
    </g>
  </g>
  <g transform="translate(57.708,129.326)">
    <g transform="rotate(-0.0)">
      <text x="0.000" y="0.000" font-family="Helvetica" text-anchor="end" font-size="8pt" fill="#262626" >-2</text>
    </g>
  </g>
  <g transform="translate(57.708,80.525)">
    <g transform="rotate(-0.0)">
      <text x="0.000" y="0.000" font-family="Helvetica" text-anchor="end" font-size="8pt" fill="#262626" >0</text>
    </g>
  </g>
  <g transform="translate(57.708,31.725)">
    <g transform="rotate(-0.0)">
      <text x="0.000" y="0.000" font-family="Helvetica" text-anchor="end" font-size="8pt" fill="#262626" >2</text>
    </g>
  </g>
      <polyline fill="none" stroke="#262626" stroke-width="0.5pt" stroke-dasharray="none" points="65.520,321.152 65.520,321.152 "/>
  <g transform="translate(456.120,360.002)">
    <g transform="rotate(-0.0)">
      <text x="0.000" y="0.000" font-family="Helvetica" text-anchor="end" font-size="8pt" fill="#262626" >&#215; 10<tspan font-size="7.0pt" dy="-7.0pt">-7</tspan></text>
    </g>
  </g>
    </g>
  </g>
  </g>
</svg>
