<?xml version="1.0" encoding="utf-8" standalone="no"?><!DOCTYPE svg PUBLIC "-//W3C//DTD SVG 1.1//EN" "http://www.w3.org/Graphics/SVG/1.1/DTD/svg11.dtd">
<svg preserveAspectRatio="xMinYMin meet" width="100%" height="100%" viewBox="0 0 504.000 378.000"  version="1.1" xmlns="http://www.w3.org/2000/svg" xmlns:xlink="http://www.w3.org/1999/xlink">
  <desc>Matlab Figure Converted by PLOT2SVG written by Juerg Schwizer</desc>
  <g id="topgroup">
  <rect x="0" y="0" width="504.000" height="378.000" fill="#ffffff" stroke="none" />
  <g id ="ID000000">
  <clipPath id="ID000001">
    <rect x="65.520" y="28.350" width="390.600" height="292.802"/>
  </clipPath>
      <polygon fill="#ffffff" fill-opacity="1.00" stroke="none" stroke-width="0.5pt" stroke-opacity="1.00" stroke-dasharray="none" points="65.520,321.152 456.120,321.152 456.120,28.350 65.520,28.350 "/>
      <polygon fill="#ffffff" fill-opacity="1.00" stroke="none" stroke-width="0.5pt" stroke-opacity="1.00" stroke-dasharray="none" points="65.520,321.152 456.120,321.152 456.120,321.152 65.520,321.152 "/>
      <polygon fill="#ffffff" fill-opacity="1.00" stroke="none" stroke-width="0.5pt" stroke-opacity="1.00" stroke-dasharray="none" points="65.520,321.152 65.520,321.152 65.520,28.350 65.520,28.350 "/>
    <g>
<g id="ID000002" >
  <g transform="translate(25.661,174.751)">
    <g transform="rotate(-90.0)">
      <text x="0.000" y="0.000" font-family="Helvetica" text-anchor="middle" font-size="8pt" fill="#262626" >Current (A)</text>
    </g>
  </g>
</g>
<g id="ID000003" >
  <g transform="translate(260.820,351.345)">
    <g transform="rotate(-0.0)">
      <text x="0.000" y="0.000" font-family="Helvetica" text-anchor="middle" font-size="8pt" fill="#262626" >Time (s)</text>
    </g>
  </g>
</g>
<g id="ID000004" >
</g>
<g id="ID000005" clip-path="url(#ID000001)" >
      <polyline fill="none" stroke="#0071bc" stroke-width="2.0pt" stroke-dasharray="none" points="67.454,293.851 71.321,265.258 75.188,227.350 79.056,198.176 82.923,182.767 86.790,176.866 90.658,175.184 94.525,174.820 98.392,174.760 102.260,174.752 106.127,174.751 109.994,174.751 113.862,174.751 117.729,174.751 121.596,174.751 125.464,174.751 129.331,174.751 133.198,174.751 137.066,174.751 140.933,174.751 144.800,174.751 148.668,174.751 152.535,174.751 156.402,174.751 160.270,174.751 164.137,174.751 168.004,174.751 171.871,174.751 175.739,174.751 179.606,174.751 183.473,174.751 187.341,174.751 191.208,174.751 195.075,174.751 198.943,174.751 202.810,174.751 206.677,174.751 210.545,174.751 214.412,174.751 218.279,174.751 222.147,174.751 226.014,174.748 229.881,174.726 233.749,174.570 237.616,173.746 241.483,170.417 245.351,160.315 249.218,137.793 253.085,102.331 256.953,66.444 260.820,51.274 264.687,67.375 268.555,103.411 272.422,138.468 276.289,160.592 280.157,170.499 284.024,173.764 287.891,174.573 291.759,174.726 295.626,174.748 299.493,174.751 303.361,174.751 307.228,174.751 311.095,174.751 314.963,174.751 318.830,174.751 322.697,174.751 326.565,174.751 330.432,174.751 334.299,174.751 338.167,174.751 342.034,174.751 345.901,174.751 349.769,174.751 353.636,174.751 357.503,174.751 361.370,174.751 365.238,174.751 369.105,174.751 372.972,174.751 376.840,174.751 380.707,174.751 384.574,174.751 388.442,174.751 392.309,174.751 396.176,174.751 400.044,174.751 403.911,174.751 407.778,174.751 411.646,174.751 415.513,174.751 419.380,174.752 423.248,174.760 427.115,174.821 430.982,175.192 434.850,176.906 438.717,182.924 442.584,198.629 446.452,228.256 450.319,266.369 454.186,294.385 "/>
<g>
</g>
</g>
    </g>
    <g>
      <polyline fill="none" stroke="#262626" stroke-width="0.5pt" stroke-dasharray="none" points="65.520,321.152 65.520,317.246 "/>
      <polyline fill="none" stroke="#262626" stroke-width="0.5pt" stroke-dasharray="none" points="260.820,321.152 260.820,317.246 "/>
      <polyline fill="none" stroke="#262626" stroke-width="0.5pt" stroke-dasharray="none" points="456.120,321.152 456.120,317.246 "/>
      <polyline fill="none" stroke="#262626" stroke-width="0.5pt" stroke-dasharray="none" points="65.520,321.152 456.120,321.152 "/>
  <g transform="translate(65.520,335.858)">
    <g transform="rotate(-0.0)">
      <text x="0.000" y="0.000" font-family="Helvetica" text-anchor="middle" font-size="8pt" fill="#262626" >-5</text>
    </g>
  </g>
  <g transform="translate(260.820,335.858)">
    <g transform="rotate(-0.0)">
      <text x="0.000" y="0.000" font-family="Helvetica" text-anchor="middle" font-size="8pt" fill="#262626" >0</text>
    </g>
  </g>
  <g transform="translate(456.120,335.858)">
    <g transform="rotate(-0.0)">
      <text x="0.000" y="0.000" font-family="Helvetica" text-anchor="middle" font-size="8pt" fill="#262626" >5</text>
    </g>
  </g>
      <polyline fill="none" stroke="#262626" stroke-width="0.5pt" stroke-dasharray="none" points="65.520,321.152 69.426,321.152 "/>
      <polyline fill="none" stroke="#262626" stroke-width="0.5pt" stroke-dasharray="none" points="65.520,272.352 69.426,272.352 "/>
      <polyline fill="none" stroke="#262626" stroke-width="0.5pt" stroke-dasharray="none" points="65.520,223.552 69.426,223.552 "/>
      <polyline fill="none" stroke="#262626" stroke-width="0.5pt" stroke-dasharray="none" points="65.520,174.751 69.426,174.751 "/>
      <polyline fill="none" stroke="#262626" stroke-width="0.5pt" stroke-dasharray="none" points="65.520,125.951 69.426,125.951 "/>
      <polyline fill="none" stroke="#262626" stroke-width="0.5pt" stroke-dasharray="none" points="65.520,77.150 69.426,77.150 "/>
      <polyline fill="none" stroke="#262626" stroke-width="0.5pt" stroke-dasharray="none" points="65.520,28.350 69.426,28.350 "/>
      <polyline fill="none" stroke="#262626" stroke-width="0.5pt" stroke-dasharray="none" points="65.520,321.152 65.520,28.350 "/>
  <g transform="translate(57.708,324.527)">
    <g transform="rotate(-0.0)">
      <text x="0.000" y="0.000" font-family="Helvetica" text-anchor="end" font-size="8pt" fill="#262626" >-0.03</text>
    </g>
  </g>
  <g transform="translate(57.708,275.727)">
    <g transform="rotate(-0.0)">
      <text x="0.000" y="0.000" font-family="Helvetica" text-anchor="end" font-size="8pt" fill="#262626" >-0.02</text>
    </g>
  </g>
  <g transform="translate(57.708,226.927)">
    <g transform="rotate(-0.0)">
      <text x="0.000" y="0.000" font-family="Helvetica" text-anchor="end" font-size="8pt" fill="#262626" >-0.01</text>
    </g>
  </g>
  <g transform="translate(57.708,178.126)">
    <g transform="rotate(-0.0)">
      <text x="0.000" y="0.000" font-family="Helvetica" text-anchor="end" font-size="8pt" fill="#262626" >0</text>
    </g>
  </g>
  <g transform="translate(57.708,129.326)">
    <g transform="rotate(-0.0)">
      <text x="0.000" y="0.000" font-family="Helvetica" text-anchor="end" font-size="8pt" fill="#262626" >0.01</text>
    </g>
  </g>
  <g transform="translate(57.708,80.525)">
    <g transform="rotate(-0.0)">
      <text x="0.000" y="0.000" font-family="Helvetica" text-anchor="end" font-size="8pt" fill="#262626" >0.02</text>
    </g>
  </g>
  <g transform="translate(57.708,31.725)">
    <g transform="rotate(-0.0)">
      <text x="0.000" y="0.000" font-family="Helvetica" text-anchor="end" font-size="8pt" fill="#262626" >0.03</text>
    </g>
  </g>
      <polyline fill="none" stroke="#262626" stroke-width="0.5pt" stroke-dasharray="none" points="65.520,321.152 65.520,321.152 "/>
  <g transform="translate(456.120,360.002)">
    <g transform="rotate(-0.0)">
      <text x="0.000" y="0.000" font-family="Helvetica" text-anchor="end" font-size="8pt" fill="#262626" >&#215; 10<tspan font-size="7.0pt" dy="-7.0pt">-7</tspan></text>
    </g>
  </g>
    </g>
  </g>
  </g>
</svg>
