<?xml version="1.0" encoding="utf-8" standalone="no"?><!DOCTYPE svg PUBLIC "-//W3C//DTD SVG 1.1//EN" "http://www.w3.org/Graphics/SVG/1.1/DTD/svg11.dtd">
<svg preserveAspectRatio="xMinYMin meet" width="100%" height="100%" viewBox="0 0 504.000 378.000"  version="1.1" xmlns="http://www.w3.org/2000/svg" xmlns:xlink="http://www.w3.org/1999/xlink">
  <desc>Matlab Figure Converted by PLOT2SVG written by Juerg Schwizer</desc>
  <g id="topgroup">
  <rect x="0" y="0" width="504.000" height="378.000" fill="#ffffff" stroke="none" />
  <g id ="ID000000">
  <clipPath id="ID000001">
    <rect x="65.520" y="28.350" width="390.600" height="292.802"/>
  </clipPath>
      <polygon fill="#ffffff" fill-opacity="1.00" stroke="none" stroke-width="0.5pt" stroke-opacity="1.00" stroke-dasharray="none" points="65.520,321.152 456.120,321.152 456.120,28.350 65.520,28.350 "/>
      <polygon fill="#ffffff" fill-opacity="1.00" stroke="none" stroke-width="0.5pt" stroke-opacity="1.00" stroke-dasharray="none" points="65.520,321.152 456.120,321.152 456.120,321.152 65.520,321.152 "/>
      <polygon fill="#ffffff" fill-opacity="1.00" stroke="none" stroke-width="0.5pt" stroke-opacity="1.00" stroke-dasharray="none" points="65.520,321.152 65.520,321.152 65.520,28.350 65.520,28.350 "/>
    <g>
<g id="ID000002" >
  <g transform="translate(18.573,174.751)">
    <g transform="rotate(-90.0)">
      <text x="0.000" y="0.000" font-family="Helvetica" text-anchor="middle" font-size="8pt" fill="#262626" >Current (A)</text>
    </g>
  </g>
</g>
<g id="ID000003" >
  <g transform="translate(260.820,351.345)">
    <g transform="rotate(-0.0)">
      <text x="0.000" y="0.000" font-family="Helvetica" text-anchor="middle" font-size="8pt" fill="#262626" >Time (s)</text>
    </g>
  </g>
</g>
<g id="ID000004" >
</g>
<g id="ID000005" clip-path="url(#ID000001)" >
      <polyline fill="none" stroke="#0071bc" stroke-width="2.0pt" stroke-dasharray="none" points="67.454,305.992 71.321,305.429 75.188,304.305 79.056,302.625 82.923,300.396 86.790,297.625 90.658,294.324 94.525,290.507 98.392,286.187 102.260,281.383 106.127,276.114 109.994,270.400 113.862,264.265 117.729,257.733 121.596,250.831 125.464,243.587 129.331,236.033 133.198,228.200 137.066,220.125 140.933,211.846 144.800,203.410 148.668,194.879 152.535,186.361 156.402,178.226 160.270,174.753 164.137,174.751 168.004,174.306 171.871,167.314 175.739,158.895 179.606,150.351 183.473,141.859 187.341,133.495 191.208,125.312 195.075,117.353 198.943,109.655 202.810,102.252 206.677,95.176 210.545,88.456 214.412,82.119 218.279,76.191 222.147,70.697 226.014,65.658 229.881,61.094 233.749,57.023 237.616,53.462 241.483,50.425 245.351,47.924 249.218,45.968 253.085,44.565 256.953,43.722 260.820,43.440 264.687,43.722 268.555,44.565 272.422,45.968 276.289,47.924 280.157,50.425 284.024,53.462 287.891,57.023 291.759,61.094 295.626,65.658 299.493,70.697 303.361,76.191 307.228,82.119 311.095,88.456 314.963,95.176 318.830,102.252 322.697,109.655 326.565,117.353 330.432,125.312 334.299,133.495 338.167,141.859 342.034,150.351 345.901,158.895 349.769,167.314 353.636,174.306 357.503,174.751 361.370,174.753 365.238,178.226 369.105,186.361 372.972,194.879 376.840,203.410 380.707,211.846 384.574,220.125 388.442,228.200 392.309,236.033 396.176,243.587 400.044,250.831 403.911,257.733 407.778,264.265 411.646,270.400 415.513,276.114 419.380,281.383 423.248,286.187 427.115,290.507 430.982,294.324 434.850,297.625 438.717,300.396 442.584,302.625 446.452,304.305 450.319,305.429 454.186,305.992 "/>
<g>
</g>
</g>
    </g>
    <g>
      <polyline fill="none" stroke="#262626" stroke-width="0.5pt" stroke-dasharray="none" points="65.520,321.152 65.520,317.246 "/>
      <polyline fill="none" stroke="#262626" stroke-width="0.5pt" stroke-dasharray="none" points="260.820,321.152 260.820,317.246 "/>
      <polyline fill="none" stroke="#262626" stroke-width="0.5pt" stroke-dasharray="none" points="456.120,321.152 456.120,317.246 "/>
      <polyline fill="none" stroke="#262626" stroke-width="0.5pt" stroke-dasharray="none" points="65.520,321.152 456.120,321.152 "/>
  <g transform="translate(65.520,335.858)">
    <g transform="rotate(-0.0)">
      <text x="0.000" y="0.000" font-family="Helvetica" text-anchor="middle" font-size="8pt" fill="#262626" >-5</text>
    </g>
  </g>
  <g transform="translate(260.820,335.858)">
    <g transform="rotate(-0.0)">
      <text x="0.000" y="0.000" font-family="Helvetica" text-anchor="middle" font-size="8pt" fill="#262626" >0</text>
    </g>
  </g>
  <g transform="translate(456.120,335.858)">
    <g transform="rotate(-0.0)">
      <text x="0.000" y="0.000" font-family="Helvetica" text-anchor="middle" font-size="8pt" fill="#262626" >5</text>
    </g>
  </g>
      <polyline fill="none" stroke="#262626" stroke-width="0.5pt" stroke-dasharray="none" points="65.520,321.152 69.426,321.152 "/>
      <polyline fill="none" stroke="#262626" stroke-width="0.5pt" stroke-dasharray="none" points="65.520,291.872 69.426,291.872 "/>
      <polyline fill="none" stroke="#262626" stroke-width="0.5pt" stroke-dasharray="none" points="65.520,262.592 69.426,262.592 "/>
      <polyline fill="none" stroke="#262626" stroke-width="0.5pt" stroke-dasharray="none" points="65.520,233.312 69.426,233.312 "/>
      <polyline fill="none" stroke="#262626" stroke-width="0.5pt" stroke-dasharray="none" points="65.520,204.031 69.426,204.031 "/>
      <polyline fill="none" stroke="#262626" stroke-width="0.5pt" stroke-dasharray="none" points="65.520,174.751 69.426,174.751 "/>
      <polyline fill="none" stroke="#262626" stroke-width="0.5pt" stroke-dasharray="none" points="65.520,145.471 69.426,145.471 "/>
      <polyline fill="none" stroke="#262626" stroke-width="0.5pt" stroke-dasharray="none" points="65.520,116.191 69.426,116.191 "/>
      <polyline fill="none" stroke="#262626" stroke-width="0.5pt" stroke-dasharray="none" points="65.520,86.910 69.426,86.910 "/>
      <polyline fill="none" stroke="#262626" stroke-width="0.5pt" stroke-dasharray="none" points="65.520,57.630 69.426,57.630 "/>
      <polyline fill="none" stroke="#262626" stroke-width="0.5pt" stroke-dasharray="none" points="65.520,28.350 69.426,28.350 "/>
      <polyline fill="none" stroke="#262626" stroke-width="0.5pt" stroke-dasharray="none" points="65.520,321.152 65.520,28.350 "/>
  <g transform="translate(57.708,324.527)">
    <g transform="rotate(-0.0)">
      <text x="0.000" y="0.000" font-family="Helvetica" text-anchor="end" font-size="8pt" fill="#262626" >-0.01</text>
    </g>
  </g>
  <g transform="translate(57.708,295.247)">
    <g transform="rotate(-0.0)">
      <text x="0.000" y="0.000" font-family="Helvetica" text-anchor="end" font-size="8pt" fill="#262626" >-0.008</text>
    </g>
  </g>
  <g transform="translate(57.708,265.967)">
    <g transform="rotate(-0.0)">
      <text x="0.000" y="0.000" font-family="Helvetica" text-anchor="end" font-size="8pt" fill="#262626" >-0.006</text>
    </g>
  </g>
  <g transform="translate(57.708,236.687)">
    <g transform="rotate(-0.0)">
      <text x="0.000" y="0.000" font-family="Helvetica" text-anchor="end" font-size="8pt" fill="#262626" >-0.004</text>
    </g>
  </g>
  <g transform="translate(57.708,207.406)">
    <g transform="rotate(-0.0)">
      <text x="0.000" y="0.000" font-family="Helvetica" text-anchor="end" font-size="8pt" fill="#262626" >-0.002</text>
    </g>
  </g>
  <g transform="translate(57.708,178.126)">
    <g transform="rotate(-0.0)">
      <text x="0.000" y="0.000" font-family="Helvetica" text-anchor="end" font-size="8pt" fill="#262626" >0</text>
    </g>
  </g>
  <g transform="translate(57.708,148.846)">
    <g transform="rotate(-0.0)">
      <text x="0.000" y="0.000" font-family="Helvetica" text-anchor="end" font-size="8pt" fill="#262626" >0.002</text>
    </g>
  </g>
  <g transform="translate(57.708,119.566)">
    <g transform="rotate(-0.0)">
      <text x="0.000" y="0.000" font-family="Helvetica" text-anchor="end" font-size="8pt" fill="#262626" >0.004</text>
    </g>
  </g>
  <g transform="translate(57.708,90.285)">
    <g transform="rotate(-0.0)">
      <text x="0.000" y="0.000" font-family="Helvetica" text-anchor="end" font-size="8pt" fill="#262626" >0.006</text>
    </g>
  </g>
  <g transform="translate(57.708,61.005)">
    <g transform="rotate(-0.0)">
      <text x="0.000" y="0.000" font-family="Helvetica" text-anchor="end" font-size="8pt" fill="#262626" >0.008</text>
    </g>
  </g>
  <g transform="translate(57.708,31.725)">
    <g transform="rotate(-0.0)">
      <text x="0.000" y="0.000" font-family="Helvetica" text-anchor="end" font-size="8pt" fill="#262626" >0.01</text>
    </g>
  </g>
      <polyline fill="none" stroke="#262626" stroke-width="0.5pt" stroke-dasharray="none" points="65.520,321.152 65.520,321.152 "/>
  <g transform="translate(456.120,360.002)">
    <g transform="rotate(-0.0)">
      <text x="0.000" y="0.000" font-family="Helvetica" text-anchor="end" font-size="8pt" fill="#262626" >&#215; 10<tspan font-size="7.0pt" dy="-7.0pt">-7</tspan></text>
    </g>
  </g>
    </g>
  </g>
  </g>
</svg>
