<?xml version="1.0" encoding="utf-8" standalone="no"?><!DOCTYPE svg PUBLIC "-//W3C//DTD SVG 1.1//EN" "http://www.w3.org/Graphics/SVG/1.1/DTD/svg11.dtd">
<svg preserveAspectRatio="xMinYMin meet" width="100%" height="100%" viewBox="0 0 504.000 378.000"  version="1.1" xmlns="http://www.w3.org/2000/svg" xmlns:xlink="http://www.w3.org/1999/xlink">
  <desc>Matlab Figure Converted by PLOT2SVG written by Juerg Schwizer</desc>
  <g id="topgroup">
  <rect x="0" y="0" width="504.000" height="378.000" fill="#ffffff" stroke="none" />
  <g id ="ID000000">
  <clipPath id="ID000001">
    <rect x="65.520" y="28.350" width="390.600" height="292.802"/>
  </clipPath>
      <polygon fill="#ffffff" fill-opacity="1.00" stroke="none" stroke-width="0.5pt" stroke-opacity="1.00" stroke-dasharray="none" points="65.520,321.152 456.120,321.152 456.120,28.350 65.520,28.350 "/>
      <polygon fill="#ffffff" fill-opacity="1.00" stroke="none" stroke-width="0.5pt" stroke-opacity="1.00" stroke-dasharray="none" points="65.520,321.152 456.120,321.152 456.120,321.152 65.520,321.152 "/>
      <polygon fill="#ffffff" fill-opacity="1.00" stroke="none" stroke-width="0.5pt" stroke-opacity="1.00" stroke-dasharray="none" points="65.520,321.152 65.520,321.152 65.520,28.350 65.520,28.350 "/>
    <g>
<g id="ID000002" >
  <g transform="translate(43.378,174.751)">
    <g transform="rotate(-90.0)">
      <text x="0.000" y="0.000" font-family="Helvetica" text-anchor="middle" font-size="8pt" fill="#262626" >Voltage (V)</text>
    </g>
  </g>
</g>
<g id="ID000003" >
  <g transform="translate(260.820,351.345)">
    <g transform="rotate(-0.0)">
      <text x="0.000" y="0.000" font-family="Helvetica" text-anchor="middle" font-size="8pt" fill="#262626" >Time (s)</text>
    </g>
  </g>
</g>
<g id="ID000004" >
</g>
<g id="ID000005" clip-path="url(#ID000001)" >
      <polyline fill="none" stroke="#0071bc" stroke-width="2.0pt" stroke-dasharray="none" points="67.454,302.790 71.321,302.295 75.188,301.306 79.056,299.828 82.923,297.865 86.790,295.427 90.658,292.521 94.525,289.160 98.392,285.356 102.260,281.125 106.127,276.482 109.994,271.445 113.862,266.034 117.729,260.270 121.596,254.175 125.464,247.773 129.331,241.088 133.198,234.147 137.066,226.976 140.933,219.603 144.800,212.056 148.668,204.365 152.535,196.560 156.402,188.670 160.270,180.726 164.137,172.759 168.004,164.800 171.871,156.879 175.739,149.028 179.606,141.276 183.473,133.653 187.341,126.190 191.208,118.914 195.075,111.854 198.943,105.038 202.810,98.492 206.677,92.240 210.545,86.308 214.412,80.718 218.279,75.491 222.147,70.649 226.014,66.209 229.881,62.190 233.749,58.605 237.616,55.471 241.483,52.797 245.351,50.596 249.218,48.875 253.085,47.640 256.953,46.898 260.820,46.650 264.687,46.898 268.555,47.640 272.422,48.875 276.289,50.596 280.157,52.797 284.024,55.471 287.891,58.605 291.759,62.190 295.626,66.209 299.493,70.649 303.361,75.491 307.228,80.718 311.095,86.308 314.963,92.240 318.830,98.492 322.697,105.038 326.565,111.854 330.432,118.914 334.299,126.190 338.167,133.653 342.034,141.276 345.901,149.028 349.769,156.879 353.636,164.800 357.503,172.759 361.370,180.726 365.238,188.670 369.105,196.560 372.972,204.365 376.840,212.056 380.707,219.603 384.574,226.976 388.442,234.147 392.309,241.088 396.176,247.773 400.044,254.175 403.911,260.270 407.778,266.034 411.646,271.445 415.513,276.482 419.380,281.125 423.248,285.356 427.115,289.160 430.982,292.521 434.850,295.427 438.717,297.865 442.584,299.828 446.452,301.306 450.319,302.295 454.186,302.790 "/>
<g>
</g>
</g>
<g id="ID000006" clip-path="url(#ID000001)" >
      <polyline fill="none" stroke="#d85218" stroke-width="2.0pt" stroke-dasharray="none" points="67.454,86.269 71.321,86.262 75.188,86.257 79.056,86.255 82.923,86.255 86.790,86.256 90.658,86.257 94.525,86.257 98.392,86.258 102.260,86.259 106.127,86.260 109.994,86.261 113.862,86.262 117.729,86.263 121.596,86.264 125.464,86.264 129.331,86.265 133.198,86.266 137.066,86.267 140.933,86.268 144.800,86.269 148.668,86.270 152.535,86.271 156.402,86.271 160.270,86.272 164.137,86.273 168.004,86.274 171.871,86.275 175.739,86.276 179.606,86.277 183.473,86.278 187.341,86.278 191.208,86.279 195.075,86.280 198.943,86.281 202.810,86.282 206.677,86.283 210.545,86.284 214.412,86.285 218.279,86.285 222.147,86.286 226.014,86.287 229.881,86.288 233.749,86.289 237.616,86.290 241.483,86.291 245.351,86.291 249.218,86.290 253.085,86.287 256.953,86.281 260.820,86.273 264.687,86.265 268.555,86.259 272.422,86.256 276.289,86.255 280.157,86.255 284.024,86.256 287.891,86.257 291.759,86.258 295.626,86.259 299.493,86.260 303.361,86.261 307.228,86.261 311.095,86.262 314.963,86.263 318.830,86.264 322.697,86.265 326.565,86.266 330.432,86.267 334.299,86.268 338.167,86.268 342.034,86.269 345.901,86.270 349.769,86.271 353.636,86.272 357.503,86.273 361.370,86.274 365.238,86.275 369.105,86.275 372.972,86.276 376.840,86.277 380.707,86.278 384.574,86.279 388.442,86.280 392.309,86.281 396.176,86.282 400.044,86.282 403.911,86.283 407.778,86.284 411.646,86.285 415.513,86.286 419.380,86.287 423.248,86.288 427.115,86.289 430.982,86.289 434.850,86.290 438.717,86.291 442.584,86.290 446.452,86.289 450.319,86.284 454.186,86.277 "/>
<g>
</g>
</g>
    </g>
    <g>
      <polyline fill="none" stroke="#262626" stroke-width="0.5pt" stroke-dasharray="none" points="65.520,321.152 65.520,317.246 "/>
      <polyline fill="none" stroke="#262626" stroke-width="0.5pt" stroke-dasharray="none" points="260.820,321.152 260.820,317.246 "/>
      <polyline fill="none" stroke="#262626" stroke-width="0.5pt" stroke-dasharray="none" points="456.120,321.152 456.120,317.246 "/>
      <polyline fill="none" stroke="#262626" stroke-width="0.5pt" stroke-dasharray="none" points="65.520,321.152 456.120,321.152 "/>
  <g transform="translate(65.520,335.858)">
    <g transform="rotate(-0.0)">
      <text x="0.000" y="0.000" font-family="Helvetica" text-anchor="middle" font-size="8pt" fill="#262626" >-5</text>
    </g>
  </g>
  <g transform="translate(260.820,335.858)">
    <g transform="rotate(-0.0)">
      <text x="0.000" y="0.000" font-family="Helvetica" text-anchor="middle" font-size="8pt" fill="#262626" >0</text>
    </g>
  </g>
  <g transform="translate(456.120,335.858)">
    <g transform="rotate(-0.0)">
      <text x="0.000" y="0.000" font-family="Helvetica" text-anchor="middle" font-size="8pt" fill="#262626" >5</text>
    </g>
  </g>
      <polyline fill="none" stroke="#262626" stroke-width="0.5pt" stroke-dasharray="none" points="65.520,321.152 69.426,321.152 "/>
      <polyline fill="none" stroke="#262626" stroke-width="0.5pt" stroke-dasharray="none" points="65.520,284.552 69.426,284.552 "/>
      <polyline fill="none" stroke="#262626" stroke-width="0.5pt" stroke-dasharray="none" points="65.520,247.952 69.426,247.952 "/>
      <polyline fill="none" stroke="#262626" stroke-width="0.5pt" stroke-dasharray="none" points="65.520,211.352 69.426,211.352 "/>
      <polyline fill="none" stroke="#262626" stroke-width="0.5pt" stroke-dasharray="none" points="65.520,174.751 69.426,174.751 "/>
      <polyline fill="none" stroke="#262626" stroke-width="0.5pt" stroke-dasharray="none" points="65.520,138.151 69.426,138.151 "/>
      <polyline fill="none" stroke="#262626" stroke-width="0.5pt" stroke-dasharray="none" points="65.520,101.551 69.426,101.551 "/>
      <polyline fill="none" stroke="#262626" stroke-width="0.5pt" stroke-dasharray="none" points="65.520,64.950 69.426,64.950 "/>
      <polyline fill="none" stroke="#262626" stroke-width="0.5pt" stroke-dasharray="none" points="65.520,28.350 69.426,28.350 "/>
      <polyline fill="none" stroke="#262626" stroke-width="0.5pt" stroke-dasharray="none" points="65.520,321.152 65.520,28.350 "/>
  <g transform="translate(57.708,324.527)">
    <g transform="rotate(-0.0)">
      <text x="0.000" y="0.000" font-family="Helvetica" text-anchor="end" font-size="8pt" fill="#262626" >-4</text>
    </g>
  </g>
  <g transform="translate(57.708,287.927)">
    <g transform="rotate(-0.0)">
      <text x="0.000" y="0.000" font-family="Helvetica" text-anchor="end" font-size="8pt" fill="#262626" >-3</text>
    </g>
  </g>
  <g transform="translate(57.708,251.327)">
    <g transform="rotate(-0.0)">
      <text x="0.000" y="0.000" font-family="Helvetica" text-anchor="end" font-size="8pt" fill="#262626" >-2</text>
    </g>
  </g>
  <g transform="translate(57.708,214.727)">
    <g transform="rotate(-0.0)">
      <text x="0.000" y="0.000" font-family="Helvetica" text-anchor="end" font-size="8pt" fill="#262626" >-1</text>
    </g>
  </g>
  <g transform="translate(57.708,178.126)">
    <g transform="rotate(-0.0)">
      <text x="0.000" y="0.000" font-family="Helvetica" text-anchor="end" font-size="8pt" fill="#262626" >0</text>
    </g>
  </g>
  <g transform="translate(57.708,141.526)">
    <g transform="rotate(-0.0)">
      <text x="0.000" y="0.000" font-family="Helvetica" text-anchor="end" font-size="8pt" fill="#262626" >1</text>
    </g>
  </g>
  <g transform="translate(57.708,104.926)">
    <g transform="rotate(-0.0)">
      <text x="0.000" y="0.000" font-family="Helvetica" text-anchor="end" font-size="8pt" fill="#262626" >2</text>
    </g>
  </g>
  <g transform="translate(57.708,68.325)">
    <g transform="rotate(-0.0)">
      <text x="0.000" y="0.000" font-family="Helvetica" text-anchor="end" font-size="8pt" fill="#262626" >3</text>
    </g>
  </g>
  <g transform="translate(57.708,31.725)">
    <g transform="rotate(-0.0)">
      <text x="0.000" y="0.000" font-family="Helvetica" text-anchor="end" font-size="8pt" fill="#262626" >4</text>
    </g>
  </g>
      <polyline fill="none" stroke="#262626" stroke-width="0.5pt" stroke-dasharray="none" points="65.520,321.152 65.520,321.152 "/>
  <g transform="translate(456.120,360.002)">
    <g transform="rotate(-0.0)">
      <text x="0.000" y="0.000" font-family="Helvetica" text-anchor="end" font-size="8pt" fill="#262626" >&#215; 10<tspan font-size="7.0pt" dy="-7.0pt">-7</tspan></text>
    </g>
  </g>
    </g>
  </g>
  </g>
</svg>
