<?xml version="1.0" encoding="utf-8" standalone="no"?><!DOCTYPE svg PUBLIC "-//W3C//DTD SVG 1.1//EN" "http://www.w3.org/Graphics/SVG/1.1/DTD/svg11.dtd">
<svg preserveAspectRatio="xMinYMin meet" width="100%" height="100%" viewBox="0 0 504.000 378.000"  version="1.1" xmlns="http://www.w3.org/2000/svg" xmlns:xlink="http://www.w3.org/1999/xlink">
  <desc>Matlab Figure Converted by PLOT2SVG written by Juerg Schwizer</desc>
  <g id="topgroup">
  <rect x="0" y="0" width="504.000" height="378.000" fill="#ffffff" stroke="none" />
  <g id ="ID000000">
  <clipPath id="ID000001">
    <rect x="65.520" y="28.350" width="390.600" height="292.802"/>
  </clipPath>
      <polygon fill="#ffffff" fill-opacity="1.00" stroke="none" stroke-width="0.5pt" stroke-opacity="1.00" stroke-dasharray="none" points="65.520,321.152 456.120,321.152 456.120,28.350 65.520,28.350 "/>
      <polygon fill="#ffffff" fill-opacity="1.00" stroke="none" stroke-width="0.5pt" stroke-opacity="1.00" stroke-dasharray="none" points="65.520,321.152 456.120,321.152 456.120,321.152 65.520,321.152 "/>
      <polygon fill="#ffffff" fill-opacity="1.00" stroke="none" stroke-width="0.5pt" stroke-opacity="1.00" stroke-dasharray="none" points="65.520,321.152 65.520,321.152 65.520,28.350 65.520,28.350 "/>
    <g>
<g id="ID000002" >
  <g transform="translate(32.749,174.751)">
    <g transform="rotate(-90.0)">
      <text x="0.000" y="0.000" font-family="Helvetica" text-anchor="middle" font-size="8pt" fill="#262626" >Voltage (V)</text>
    </g>
  </g>
</g>
<g id="ID000003" >
  <g transform="translate(260.820,351.345)">
    <g transform="rotate(-0.0)">
      <text x="0.000" y="0.000" font-family="Helvetica" text-anchor="middle" font-size="8pt" fill="#262626" >Time (s)</text>
    </g>
  </g>
</g>
<g id="ID000004" >
</g>
<g id="ID000005" clip-path="url(#ID000001)" >
      <polyline fill="none" stroke="#0071bc" stroke-width="2.0pt" stroke-dasharray="none" points="67.454,318.072 71.321,317.584 75.188,316.599 79.056,315.123 82.923,313.161 86.790,310.722 90.658,307.815 94.525,304.453 98.392,300.649 102.260,296.416 106.127,291.772 109.994,286.734 113.862,281.323 117.729,275.558 121.596,269.462 125.464,263.060 129.331,256.345 133.198,249.145 137.066,215.281 140.933,219.736 144.800,252.194 148.668,284.285 152.535,251.030 156.402,253.869 160.270,251.934 164.137,243.651 168.004,109.936 171.871,219.776 175.739,135.058 179.606,185.580 183.473,112.847 187.341,153.286 191.208,117.202 195.075,126.934 198.943,120.303 202.810,113.760 206.677,107.508 210.545,101.575 214.412,95.984 218.279,90.756 222.147,85.913 226.014,81.473 229.881,77.452 233.749,73.867 237.616,70.731 241.483,68.057 245.351,65.856 249.218,64.135 253.085,62.904 256.953,62.168 260.820,61.928 264.687,62.184 268.555,62.932 272.422,64.169 276.289,65.891 280.157,68.092 284.024,70.765 287.891,73.899 291.759,77.482 295.626,81.501 299.493,85.940 303.361,90.781 307.228,96.007 311.095,101.596 314.963,107.527 318.830,113.778 322.697,120.324 326.565,126.979 330.432,132.348 334.299,154.814 338.167,171.573 342.034,188.571 345.901,119.711 349.769,121.394 353.636,122.010 357.503,161.399 361.370,251.923 365.238,110.088 369.105,252.386 372.972,186.074 376.840,267.687 380.707,286.561 384.574,232.688 388.442,235.697 392.309,256.357 396.176,263.043 400.044,269.443 403.911,275.537 407.778,281.300 411.646,286.710 415.513,291.746 419.380,296.389 423.248,300.619 427.115,304.422 430.982,307.783 434.850,310.687 438.717,313.125 442.584,315.088 446.452,316.568 450.319,317.561 454.186,318.064 "/>
<g>
</g>
</g>
<g id="ID000006" clip-path="url(#ID000001)" >
      <polyline fill="none" stroke="#d85218" stroke-width="2.0pt" stroke-dasharray="none" points="67.454,318.072 71.321,317.584 75.188,316.599 79.056,315.123 82.923,313.161 86.790,310.722 90.658,307.815 94.525,304.453 98.392,300.649 102.260,296.416 106.127,291.772 109.994,286.734 113.862,281.323 117.729,275.558 121.596,269.462 125.464,263.059 129.331,256.403 133.198,249.718 137.066,269.238 140.933,250.035 144.800,202.482 148.668,155.007 152.535,172.649 156.402,154.028 160.270,140.075 164.137,132.422 168.004,250.216 171.871,124.533 175.739,193.547 179.606,127.519 183.473,185.005 187.341,129.637 191.208,151.169 195.075,127.316 198.943,120.312 202.810,113.760 206.677,107.508 210.545,101.575 214.412,95.984 218.279,90.756 222.147,85.913 226.014,81.473 229.881,77.452 233.749,73.867 237.616,70.731 241.483,68.057 245.351,65.856 249.218,64.135 253.085,62.904 256.953,62.168 260.820,61.928 264.687,62.184 268.555,62.932 272.422,64.169 276.289,65.891 280.157,68.092 284.024,70.765 287.891,73.899 291.759,77.482 295.626,81.501 299.493,85.940 303.361,90.781 307.228,96.007 311.095,101.596 314.963,107.527 318.830,113.778 322.697,120.323 326.565,127.299 330.432,136.048 334.299,128.131 338.167,126.298 342.034,124.543 345.901,208.905 349.769,222.924 353.636,238.148 357.503,214.675 361.370,140.083 365.238,297.803 369.105,171.284 372.972,253.205 376.840,186.972 380.707,183.190 384.574,251.807 388.442,263.139 392.309,256.359 396.176,263.041 400.044,269.443 403.911,275.537 407.778,281.300 411.646,286.710 415.513,291.746 419.380,296.389 423.248,300.619 427.115,304.422 430.982,307.783 434.850,310.687 438.717,313.125 442.584,315.088 446.452,316.568 450.319,317.561 454.186,318.064 "/>
<g>
</g>
</g>
<g id="ID000007" clip-path="url(#ID000001)" >
      <polyline fill="none" stroke="#ecb01f" stroke-width="2.0pt" stroke-dasharray="none" points="67.454,61.994 71.321,62.496 75.188,63.490 79.056,64.970 82.923,66.932 86.790,69.370 90.658,72.275 94.525,75.635 98.392,79.438 102.260,83.669 106.127,88.311 109.994,93.347 113.862,98.757 117.729,104.520 121.596,110.614 125.464,117.016 129.331,123.670 133.198,130.353 137.066,110.831 140.933,130.033 144.800,177.584 148.668,225.057 152.535,207.413 156.402,226.032 160.270,239.984 164.137,247.636 168.004,129.839 171.871,255.521 175.739,186.505 179.606,252.531 183.473,195.044 187.341,250.409 191.208,228.876 195.075,252.727 198.943,259.729 202.810,266.279 206.677,272.530 210.545,278.462 214.412,284.051 218.279,289.276 222.147,294.118 226.014,298.557 229.881,302.575 233.749,306.159 237.616,309.293 241.483,311.965 245.351,314.166 249.218,315.889 253.085,317.126 256.953,317.874 260.820,318.130 264.687,317.890 268.555,317.153 272.422,315.922 276.289,314.202 280.157,312.000 284.024,309.326 287.891,306.191 291.759,302.605 295.626,298.585 299.493,294.145 303.361,289.301 307.228,284.074 311.095,278.483 314.963,272.550 318.830,266.298 322.697,259.750 326.565,252.773 330.432,244.023 334.299,251.938 338.167,253.769 342.034,255.522 345.901,171.158 349.769,157.138 353.636,141.912 357.503,165.383 361.370,239.973 365.238,82.251 369.105,208.769 372.972,126.846 376.840,193.077 380.707,196.857 384.574,128.239 388.442,116.905 392.309,123.683 396.176,117.000 400.044,110.596 403.911,104.500 407.778,98.735 411.646,93.323 415.513,88.286 419.380,83.641 423.248,79.409 427.115,75.604 430.982,72.242 434.850,69.336 438.717,66.897 442.584,64.935 446.452,63.458 450.319,62.474 454.186,61.986 "/>
<g>
</g>
</g>
<g id="ID000008" clip-path="url(#ID000001)" >
      <polyline fill="none" stroke="#7d2e8d" stroke-width="2.0pt" stroke-dasharray="none" points="67.454,61.994 71.321,62.496 75.188,63.490 79.056,64.970 82.923,66.932 86.790,69.370 90.658,72.275 94.525,75.635 98.392,79.438 102.260,83.669 106.127,88.311 109.994,93.347 113.862,98.757 117.729,104.520 121.596,110.614 125.464,117.015 129.331,123.728 133.198,130.926 137.066,164.789 140.933,160.332 144.800,127.872 148.668,95.779 152.535,129.033 156.402,126.192 160.270,128.125 164.137,136.406 168.004,270.119 171.871,160.277 175.739,244.994 179.606,194.470 183.473,267.201 187.341,226.760 191.208,262.843 195.075,253.110 198.943,259.739 202.810,266.280 206.677,272.530 210.545,278.462 214.412,284.051 218.279,289.276 222.147,294.118 226.014,298.557 229.881,302.575 233.749,306.159 237.616,309.293 241.483,311.965 245.351,314.166 249.218,315.889 253.085,317.126 256.953,317.874 260.820,318.130 264.687,317.890 268.555,317.153 272.422,315.922 276.289,314.202 280.157,312.000 284.024,309.326 287.891,306.191 291.759,302.605 295.626,298.585 299.493,294.145 303.361,289.301 307.228,284.074 311.095,278.483 314.963,272.550 318.830,266.297 322.697,259.750 326.565,253.093 330.432,247.722 334.299,225.254 338.167,208.494 342.034,191.494 345.901,260.352 349.769,258.668 353.636,258.050 357.503,218.659 361.370,128.134 365.238,269.967 369.105,127.667 372.972,193.977 376.840,112.363 380.707,93.487 384.574,147.358 388.442,144.347 392.309,123.685 396.176,116.998 400.044,110.595 403.911,104.500 407.778,98.735 411.646,93.323 415.513,88.286 419.380,83.641 423.248,79.409 427.115,75.604 430.982,72.242 434.850,69.336 438.717,66.897 442.584,64.935 446.452,63.458 450.319,62.474 454.186,61.986 "/>
<g>
</g>
</g>
    </g>
    <g>
      <polyline fill="none" stroke="#262626" stroke-width="0.5pt" stroke-dasharray="none" points="65.520,321.152 65.520,317.246 "/>
      <polyline fill="none" stroke="#262626" stroke-width="0.5pt" stroke-dasharray="none" points="260.820,321.152 260.820,317.246 "/>
      <polyline fill="none" stroke="#262626" stroke-width="0.5pt" stroke-dasharray="none" points="456.120,321.152 456.120,317.246 "/>
      <polyline fill="none" stroke="#262626" stroke-width="0.5pt" stroke-dasharray="none" points="65.520,321.152 456.120,321.152 "/>
  <g transform="translate(65.520,335.858)">
    <g transform="rotate(-0.0)">
      <text x="0.000" y="0.000" font-family="Helvetica" text-anchor="middle" font-size="8pt" fill="#262626" >-5</text>
    </g>
  </g>
  <g transform="translate(260.820,335.858)">
    <g transform="rotate(-0.0)">
      <text x="0.000" y="0.000" font-family="Helvetica" text-anchor="middle" font-size="8pt" fill="#262626" >0</text>
    </g>
  </g>
  <g transform="translate(456.120,335.858)">
    <g transform="rotate(-0.0)">
      <text x="0.000" y="0.000" font-family="Helvetica" text-anchor="middle" font-size="8pt" fill="#262626" >5</text>
    </g>
  </g>
      <polyline fill="none" stroke="#262626" stroke-width="0.5pt" stroke-dasharray="none" points="65.520,321.152 69.426,321.152 "/>
      <polyline fill="none" stroke="#262626" stroke-width="0.5pt" stroke-dasharray="none" points="65.520,284.552 69.426,284.552 "/>
      <polyline fill="none" stroke="#262626" stroke-width="0.5pt" stroke-dasharray="none" points="65.520,247.952 69.426,247.952 "/>
      <polyline fill="none" stroke="#262626" stroke-width="0.5pt" stroke-dasharray="none" points="65.520,211.352 69.426,211.352 "/>
      <polyline fill="none" stroke="#262626" stroke-width="0.5pt" stroke-dasharray="none" points="65.520,174.751 69.426,174.751 "/>
      <polyline fill="none" stroke="#262626" stroke-width="0.5pt" stroke-dasharray="none" points="65.520,138.151 69.426,138.151 "/>
      <polyline fill="none" stroke="#262626" stroke-width="0.5pt" stroke-dasharray="none" points="65.520,101.551 69.426,101.551 "/>
      <polyline fill="none" stroke="#262626" stroke-width="0.5pt" stroke-dasharray="none" points="65.520,64.950 69.426,64.950 "/>
      <polyline fill="none" stroke="#262626" stroke-width="0.5pt" stroke-dasharray="none" points="65.520,28.350 69.426,28.350 "/>
      <polyline fill="none" stroke="#262626" stroke-width="0.5pt" stroke-dasharray="none" points="65.520,321.152 65.520,28.350 "/>
  <g transform="translate(57.708,324.527)">
    <g transform="rotate(-0.0)">
      <text x="0.000" y="0.000" font-family="Helvetica" text-anchor="end" font-size="8pt" fill="#262626" >-3</text>
    </g>
  </g>
  <g transform="translate(57.708,287.927)">
    <g transform="rotate(-0.0)">
      <text x="0.000" y="0.000" font-family="Helvetica" text-anchor="end" font-size="8pt" fill="#262626" >-2.5</text>
    </g>
  </g>
  <g transform="translate(57.708,251.327)">
    <g transform="rotate(-0.0)">
      <text x="0.000" y="0.000" font-family="Helvetica" text-anchor="end" font-size="8pt" fill="#262626" >-2</text>
    </g>
  </g>
  <g transform="translate(57.708,214.727)">
    <g transform="rotate(-0.0)">
      <text x="0.000" y="0.000" font-family="Helvetica" text-anchor="end" font-size="8pt" fill="#262626" >-1.5</text>
    </g>
  </g>
  <g transform="translate(57.708,178.126)">
    <g transform="rotate(-0.0)">
      <text x="0.000" y="0.000" font-family="Helvetica" text-anchor="end" font-size="8pt" fill="#262626" >-1</text>
    </g>
  </g>
  <g transform="translate(57.708,141.526)">
    <g transform="rotate(-0.0)">
      <text x="0.000" y="0.000" font-family="Helvetica" text-anchor="end" font-size="8pt" fill="#262626" >-0.5</text>
    </g>
  </g>
  <g transform="translate(57.708,104.926)">
    <g transform="rotate(-0.0)">
      <text x="0.000" y="0.000" font-family="Helvetica" text-anchor="end" font-size="8pt" fill="#262626" >0</text>
    </g>
  </g>
  <g transform="translate(57.708,68.325)">
    <g transform="rotate(-0.0)">
      <text x="0.000" y="0.000" font-family="Helvetica" text-anchor="end" font-size="8pt" fill="#262626" >0.5</text>
    </g>
  </g>
  <g transform="translate(57.708,31.725)">
    <g transform="rotate(-0.0)">
      <text x="0.000" y="0.000" font-family="Helvetica" text-anchor="end" font-size="8pt" fill="#262626" >1</text>
    </g>
  </g>
      <polyline fill="none" stroke="#262626" stroke-width="0.5pt" stroke-dasharray="none" points="65.520,321.152 65.520,321.152 "/>
  <g transform="translate(456.120,360.002)">
    <g transform="rotate(-0.0)">
      <text x="0.000" y="0.000" font-family="Helvetica" text-anchor="end" font-size="8pt" fill="#262626" >&#215; 10<tspan font-size="7.0pt" dy="-7.0pt">-7</tspan></text>
    </g>
  </g>
    </g>
  </g>
  </g>
</svg>
