<?xml version="1.0" encoding="utf-8" standalone="no"?><!DOCTYPE svg PUBLIC "-//W3C//DTD SVG 1.1//EN" "http://www.w3.org/Graphics/SVG/1.1/DTD/svg11.dtd">
<svg preserveAspectRatio="xMinYMin meet" width="100%" height="100%" viewBox="0 0 504.000 378.000"  version="1.1" xmlns="http://www.w3.org/2000/svg" xmlns:xlink="http://www.w3.org/1999/xlink">
  <desc>Matlab Figure Converted by PLOT2SVG written by Juerg Schwizer</desc>
  <g id="topgroup">
  <rect x="0" y="0" width="504.000" height="378.000" fill="#ffffff" stroke="none" />
  <g id ="ID000000">
  <clipPath id="ID000001">
    <rect x="65.520" y="28.350" width="390.600" height="292.802"/>
  </clipPath>
      <polygon fill="#ffffff" fill-opacity="1.00" stroke="none" stroke-width="0.5pt" stroke-opacity="1.00" stroke-dasharray="none" points="65.520,321.152 456.120,321.152 456.120,28.350 65.520,28.350 "/>
      <polygon fill="#ffffff" fill-opacity="1.00" stroke="none" stroke-width="0.5pt" stroke-opacity="1.00" stroke-dasharray="none" points="65.520,321.152 456.120,321.152 456.120,321.152 65.520,321.152 "/>
      <polygon fill="#ffffff" fill-opacity="1.00" stroke="none" stroke-width="0.5pt" stroke-opacity="1.00" stroke-dasharray="none" points="65.520,321.152 65.520,321.152 65.520,28.350 65.520,28.350 "/>
    <g>
<g id="ID000002" >
  <g transform="translate(32.749,174.751)">
    <g transform="rotate(-90.0)">
      <text x="0.000" y="0.000" font-family="Helvetica" text-anchor="middle" font-size="8pt" fill="#262626" >Voltage (V)</text>
    </g>
  </g>
</g>
<g id="ID000003" >
  <g transform="translate(260.820,351.345)">
    <g transform="rotate(-0.0)">
      <text x="0.000" y="0.000" font-family="Helvetica" text-anchor="middle" font-size="8pt" fill="#262626" >Time (s)</text>
    </g>
  </g>
</g>
<g id="ID000004" >
</g>
<g id="ID000005" clip-path="url(#ID000001)" >
      <polyline fill="none" stroke="#0071bc" stroke-width="2.0pt" stroke-dasharray="none" points="67.454,46.523 71.321,46.557 75.188,46.625 79.056,46.730 82.923,46.871 86.790,47.053 90.658,47.280 94.525,47.555 98.392,47.888 102.260,48.286 106.127,48.763 109.994,49.340 113.862,50.042 117.729,50.876 121.596,51.953 125.464,53.534 129.331,55.691 133.198,59.118 137.066,65.113 140.933,74.288 144.800,84.879 148.668,95.847 152.535,106.996 156.402,118.267 160.270,129.616 164.137,140.997 168.004,152.367 171.871,163.682 175.739,174.899 179.606,185.973 183.473,196.863 187.341,207.525 191.208,217.918 195.075,228.004 198.943,237.741 202.810,247.093 206.677,256.024 210.545,264.499 214.412,272.485 218.279,279.951 222.147,286.869 226.014,293.211 229.881,298.953 233.749,304.073 237.616,308.552 241.483,312.371 245.351,315.516 249.218,317.975 253.085,319.738 256.953,320.798 260.820,321.152 264.687,320.798 268.555,319.738 272.422,317.975 276.289,315.516 280.157,312.371 284.024,308.552 287.891,304.073 291.759,298.953 295.626,293.211 299.493,286.869 303.361,279.951 307.228,272.485 311.095,264.499 314.963,256.024 318.830,247.093 322.697,237.741 326.565,228.004 330.432,217.918 334.299,207.525 338.167,196.863 342.034,185.973 345.901,174.899 349.769,163.682 353.636,152.367 357.503,140.997 361.370,129.616 365.238,118.267 369.105,106.996 372.972,95.847 376.840,84.879 380.707,74.288 384.574,65.113 388.442,59.118 392.309,55.691 396.176,53.534 400.044,51.953 403.911,50.876 407.778,50.042 411.646,49.340 415.513,48.763 419.380,48.286 423.248,47.888 427.115,47.555 430.982,47.280 434.850,47.053 438.717,46.871 442.584,46.730 446.452,46.625 450.319,46.557 454.186,46.523 "/>
<g>
</g>
</g>
    </g>
    <g>
      <polyline fill="none" stroke="#262626" stroke-width="0.5pt" stroke-dasharray="none" points="65.520,321.152 65.520,317.246 "/>
      <polyline fill="none" stroke="#262626" stroke-width="0.5pt" stroke-dasharray="none" points="260.820,321.152 260.820,317.246 "/>
      <polyline fill="none" stroke="#262626" stroke-width="0.5pt" stroke-dasharray="none" points="456.120,321.152 456.120,317.246 "/>
      <polyline fill="none" stroke="#262626" stroke-width="0.5pt" stroke-dasharray="none" points="65.520,321.152 456.120,321.152 "/>
  <g transform="translate(65.520,335.858)">
    <g transform="rotate(-0.0)">
      <text x="0.000" y="0.000" font-family="Helvetica" text-anchor="middle" font-size="8pt" fill="#262626" >-5</text>
    </g>
  </g>
  <g transform="translate(260.820,335.858)">
    <g transform="rotate(-0.0)">
      <text x="0.000" y="0.000" font-family="Helvetica" text-anchor="middle" font-size="8pt" fill="#262626" >0</text>
    </g>
  </g>
  <g transform="translate(456.120,335.858)">
    <g transform="rotate(-0.0)">
      <text x="0.000" y="0.000" font-family="Helvetica" text-anchor="middle" font-size="8pt" fill="#262626" >5</text>
    </g>
  </g>
      <polyline fill="none" stroke="#262626" stroke-width="0.5pt" stroke-dasharray="none" points="65.520,321.152 69.426,321.152 "/>
      <polyline fill="none" stroke="#262626" stroke-width="0.5pt" stroke-dasharray="none" points="65.520,284.552 69.426,284.552 "/>
      <polyline fill="none" stroke="#262626" stroke-width="0.5pt" stroke-dasharray="none" points="65.520,247.952 69.426,247.952 "/>
      <polyline fill="none" stroke="#262626" stroke-width="0.5pt" stroke-dasharray="none" points="65.520,211.352 69.426,211.352 "/>
      <polyline fill="none" stroke="#262626" stroke-width="0.5pt" stroke-dasharray="none" points="65.520,174.751 69.426,174.751 "/>
      <polyline fill="none" stroke="#262626" stroke-width="0.5pt" stroke-dasharray="none" points="65.520,138.151 69.426,138.151 "/>
      <polyline fill="none" stroke="#262626" stroke-width="0.5pt" stroke-dasharray="none" points="65.520,101.551 69.426,101.551 "/>
      <polyline fill="none" stroke="#262626" stroke-width="0.5pt" stroke-dasharray="none" points="65.520,64.950 69.426,64.950 "/>
      <polyline fill="none" stroke="#262626" stroke-width="0.5pt" stroke-dasharray="none" points="65.520,28.350 69.426,28.350 "/>
      <polyline fill="none" stroke="#262626" stroke-width="0.5pt" stroke-dasharray="none" points="65.520,321.152 65.520,28.350 "/>
  <g transform="translate(57.708,324.527)">
    <g transform="rotate(-0.0)">
      <text x="0.000" y="0.000" font-family="Helvetica" text-anchor="end" font-size="8pt" fill="#262626" >-1</text>
    </g>
  </g>
  <g transform="translate(57.708,287.927)">
    <g transform="rotate(-0.0)">
      <text x="0.000" y="0.000" font-family="Helvetica" text-anchor="end" font-size="8pt" fill="#262626" >-0.8</text>
    </g>
  </g>
  <g transform="translate(57.708,251.327)">
    <g transform="rotate(-0.0)">
      <text x="0.000" y="0.000" font-family="Helvetica" text-anchor="end" font-size="8pt" fill="#262626" >-0.6</text>
    </g>
  </g>
  <g transform="translate(57.708,214.727)">
    <g transform="rotate(-0.0)">
      <text x="0.000" y="0.000" font-family="Helvetica" text-anchor="end" font-size="8pt" fill="#262626" >-0.4</text>
    </g>
  </g>
  <g transform="translate(57.708,178.126)">
    <g transform="rotate(-0.0)">
      <text x="0.000" y="0.000" font-family="Helvetica" text-anchor="end" font-size="8pt" fill="#262626" >-0.2</text>
    </g>
  </g>
  <g transform="translate(57.708,141.526)">
    <g transform="rotate(-0.0)">
      <text x="0.000" y="0.000" font-family="Helvetica" text-anchor="end" font-size="8pt" fill="#262626" >0</text>
    </g>
  </g>
  <g transform="translate(57.708,104.926)">
    <g transform="rotate(-0.0)">
      <text x="0.000" y="0.000" font-family="Helvetica" text-anchor="end" font-size="8pt" fill="#262626" >0.2</text>
    </g>
  </g>
  <g transform="translate(57.708,68.325)">
    <g transform="rotate(-0.0)">
      <text x="0.000" y="0.000" font-family="Helvetica" text-anchor="end" font-size="8pt" fill="#262626" >0.4</text>
    </g>
  </g>
  <g transform="translate(57.708,31.725)">
    <g transform="rotate(-0.0)">
      <text x="0.000" y="0.000" font-family="Helvetica" text-anchor="end" font-size="8pt" fill="#262626" >0.6</text>
    </g>
  </g>
      <polyline fill="none" stroke="#262626" stroke-width="0.5pt" stroke-dasharray="none" points="65.520,321.152 65.520,321.152 "/>
  <g transform="translate(456.120,360.002)">
    <g transform="rotate(-0.0)">
      <text x="0.000" y="0.000" font-family="Helvetica" text-anchor="end" font-size="8pt" fill="#262626" >&#215; 10<tspan font-size="7.0pt" dy="-7.0pt">-7</tspan></text>
    </g>
  </g>
    </g>
  </g>
  </g>
</svg>
